<svg width="203" height="61" viewBox="0 0 203 61" fill="none" xmlns="http://www.w3.org/2000/svg">
<path d="M0.875 41.9375C2.04167 41.9375 3.10417 41.6042 4.0625 40.9375C5.02083 40.2708 5.88542 39.4375 6.65625 38.4375C7.42708 37.4583 8.09375 36.4062 8.65625 35.2812C9.21875 34.1771 9.67708 33.1771 10.0312 32.2812C10.1771 31.9062 10.3646 31.3958 10.5938 30.75C10.8229 30.0833 11.0417 29.4375 11.25 28.8125C11.4792 28.1667 11.6667 27.5938 11.8125 27.0938C11.9792 26.5938 12.0625 26.3021 12.0625 26.2188V26.0938C11.7083 25.8021 11.3542 25.6979 11 25.7812C10.6458 25.8438 10.3021 25.9479 9.96875 26.0938C9.65625 26.2188 9.36458 26.3021 9.09375 26.3438C8.82292 26.3646 8.58333 26.1771 8.375 25.7812C8.375 25.4271 8.46875 25.1458 8.65625 24.9375C8.84375 24.7292 9.08333 24.5625 9.375 24.4375C9.66667 24.3125 9.98958 24.2188 10.3438 24.1562C10.6979 24.0938 11.0417 24.0208 11.375 23.9375C11.7083 23.8542 12.0104 23.7396 12.2812 23.5938C12.5521 23.4479 12.75 23.2396 12.875 22.9688L16.0938 15.6875C16.3646 15.1042 16.7396 14.5625 17.2188 14.0625C17.6979 13.5417 18.2396 13.1042 18.8438 12.75C19.4479 12.3958 20.0833 12.1146 20.75 11.9062C21.4167 11.6979 22.0625 11.5938 22.6875 11.5938C23.5833 11.5938 24.1979 11.8333 24.5312 12.3125C24.8646 12.7917 25.0312 13.5104 25.0312 14.4688C25.0312 14.6562 24.9583 14.8958 24.8125 15.1875C24.6875 15.4792 24.5208 15.7604 24.3125 16.0312C24.1042 16.3021 23.875 16.5312 23.625 16.7188C23.375 16.9062 23.1354 17 22.9062 17C22.9062 16.7292 22.9583 16.4792 23.0625 16.25C23.1667 16 23.2708 15.7604 23.375 15.5312C23.5 15.3021 23.6146 15.0729 23.7188 14.8438C23.8229 14.5938 23.875 14.3229 23.875 14.0312C23.875 13.6979 23.8438 13.4167 23.7812 13.1875C23.7188 12.9583 23.4583 12.8438 23 12.8438C22.3958 12.8438 21.7812 13 21.1562 13.3125C20.5521 13.6042 19.9583 14.0104 19.375 14.5312C18.8125 15.0312 18.2708 15.6146 17.75 16.2812C17.25 16.9271 16.8125 17.5938 16.4375 18.2812C16.0833 18.9688 15.7917 19.6562 15.5625 20.3438C15.3542 21.0104 15.25 21.6146 15.25 22.1562C15.25 22.1979 15.25 22.2708 15.25 22.375C15.2708 22.4583 15.2812 22.5208 15.2812 22.5625C15.6771 22.4375 16.125 22.2917 16.625 22.125C17.1458 21.9583 17.6771 21.8125 18.2188 21.6875C18.7812 21.5417 19.3333 21.4271 19.875 21.3438C20.4375 21.2396 20.9688 21.1875 21.4688 21.1875C21.4688 21.5208 21.3021 21.8229 20.9688 22.0938C20.6354 22.3646 20.2083 22.6146 19.6875 22.8438C19.1875 23.0729 18.625 23.2917 18 23.5C17.3958 23.7083 16.8229 23.9167 16.2812 24.125C15.7396 24.3125 15.2604 24.5208 14.8438 24.75C14.4479 24.9583 14.1979 25.1771 14.0938 25.4062C13.9896 26.0312 13.7604 26.8958 13.4062 28C13.0729 29.1042 12.6354 30.3021 12.0938 31.5938C11.5521 32.8854 10.9271 34.1979 10.2188 35.5312C9.53125 36.8646 8.78125 38.0729 7.96875 39.1562C7.13542 40.2396 6.27083 41.125 5.375 41.8125C4.45833 42.5 3.52083 42.8438 2.5625 42.8438C2.4375 42.8438 2.28125 42.8333 2.09375 42.8125C1.88542 42.7917 1.69792 42.75 1.53125 42.6875C1.34375 42.625 1.1875 42.5312 1.0625 42.4062C0.9375 42.2812 0.875 42.125 0.875 41.9375ZM22.4375 29.1562C22.4375 29.0104 22.4479 28.7917 22.4688 28.5C22.5104 28.1875 22.5521 27.8854 22.5938 27.5938C22.6354 27.3021 22.6771 27.0417 22.7188 26.8125C22.7604 26.5625 22.8021 26.4062 22.8438 26.3438L28.5312 14.9688C28.6146 14.8021 28.7708 14.5729 29 14.2812C29.25 13.9688 29.5104 13.6562 29.7812 13.3438C30.0729 13.0104 30.3542 12.7083 30.625 12.4375C30.9167 12.1458 31.1562 11.9167 31.3438 11.75C31.4896 11.7917 31.5938 11.8646 31.6562 11.9688C31.7188 12.0729 31.7604 12.1979 31.7812 12.3438C31.8021 12.4688 31.8021 12.5938 31.7812 12.7188C31.7812 12.8438 31.7812 12.9479 31.7812 13.0312C31.7812 13.1354 31.7812 13.2812 31.7812 13.4688C31.7812 13.6562 31.7708 13.75 31.75 13.75C31.5417 14.3125 31.2188 14.9792 30.7812 15.75C30.3438 16.5208 29.8542 17.3438 29.3125 18.2188C28.7708 19.0938 28.2083 20.0104 27.625 20.9688C27.0625 21.9062 26.5417 22.8438 26.0625 23.7812C25.6042 24.6979 25.2188 25.5833 24.9062 26.4375C24.6146 27.2917 24.4688 28.0729 24.4688 28.7812C24.4688 29.1562 24.5729 29.4583 24.7812 29.6875C25.0104 29.8958 25.25 30.0833 25.5 30.25C25.75 30.4167 25.9792 30.5833 26.1875 30.75C26.4167 30.9167 26.5312 31.1458 26.5312 31.4375C26.5312 31.625 26.4479 31.7708 26.2812 31.875C26.1146 31.9583 25.9167 32 25.6875 32C24.8125 32 24.0521 31.7604 23.4062 31.2812C22.7604 30.7812 22.4375 30.0729 22.4375 29.1562ZM37.875 20.6875C37.3958 20.75 36.8438 21.0521 36.2188 21.5938C35.5938 22.1146 34.9896 22.7604 34.4062 23.5312C33.8438 24.2812 33.3646 25.1042 32.9688 26C32.5729 26.875 32.375 27.6875 32.375 28.4375C32.375 29.0417 32.5312 29.4688 32.8438 29.7188C33.1562 29.9479 33.6042 30.0625 34.1875 30.0625C34.8125 30.0625 35.4167 29.9896 36 29.8438C36.6042 29.6771 37.1979 29.5104 37.7812 29.3438C38.3854 29.1562 38.9792 28.9896 39.5625 28.8438C40.1667 28.6771 40.7812 28.5938 41.4062 28.5938C41.4062 28.8854 41.3646 29.1354 41.2812 29.3438C41.1979 29.5312 41.0729 29.7396 40.9062 29.9688C39.8229 30.4896 38.7083 30.9688 37.5625 31.4062C36.4167 31.8229 35.2188 32.0312 33.9688 32.0312C33.5938 32.0312 33.1979 31.9688 32.7812 31.8438C32.3646 31.6979 31.9792 31.5 31.625 31.25C31.2708 31 30.9688 30.6979 30.7188 30.3438C30.4896 29.9896 30.375 29.5938 30.375 29.1562C30.375 28.2188 30.5104 27.3125 30.7812 26.4375C31.0521 25.5417 31.4271 24.6979 31.9062 23.9062C32.3854 23.1146 32.9583 22.3854 33.625 21.7188C34.3125 21.0521 35.0521 20.4688 35.8438 19.9688V19.9375C36.1562 19.75 36.5104 19.5729 36.9062 19.4062C37.3229 19.2188 37.7083 19.1146 38.0625 19.0938C38.4167 19.0521 38.7083 19.1354 38.9375 19.3438C39.1875 19.5312 39.3125 19.8958 39.3125 20.4375C39.3125 20.6875 39.2917 21.0208 39.25 21.4375C39.2083 21.8333 39.0938 22.1146 38.9062 22.2812C38.7396 22.3854 38.5208 22.4792 38.25 22.5625C38.125 22.6042 38 22.6354 37.875 22.6562V20.6875Z" fill="#ED4141"/>
<path d="M45.9141 26.7969C46.1328 24.9844 46.5234 23.2656 47.0859 21.6406C47.6484 19.9844 48.3359 18.3906 49.1484 16.8594C49.9609 15.2969 50.8672 13.7656 51.8672 12.2656C52.8672 10.7656 53.9297 9.25 55.0547 7.71875C55.7109 6.875 56.4297 6.01562 57.2109 5.14062C57.9922 4.26563 58.8359 3.46875 59.7422 2.75C60.6484 2.03125 61.6172 1.45313 62.6484 1.01562C63.7109 0.546875 64.8203 0.3125 65.9766 0.3125C66.6016 0.3125 67.0859 0.359375 67.4297 0.453125C67.7734 0.515625 68.0234 0.671875 68.1797 0.921875C68.3672 1.14062 68.4766 1.46875 68.5078 1.90625C68.5391 2.34375 68.5391 2.90625 68.5078 3.59375C68.5078 4.375 68.3672 5.17187 68.0859 5.98438C67.8047 6.79688 67.4141 7.5625 66.9141 8.28125C66.4141 9 65.8203 9.64062 65.1328 10.2031C64.4453 10.7344 63.7109 11.125 62.9297 11.375V10.7188C62.9297 10.0625 63.0703 9.4375 63.3516 8.84375C63.6641 8.25 64.0078 7.65625 64.3828 7.0625C64.7578 6.4375 65.0859 5.79688 65.3672 5.14062C65.6797 4.48438 65.8359 3.78125 65.8359 3.03125C65.4922 3.03125 65.1953 3.01562 64.9453 2.98438C64.6953 2.92187 64.4609 2.89062 64.2422 2.89062C64.0547 2.85938 63.8516 2.89062 63.6328 2.98438C63.4453 3.04688 63.2109 3.20312 62.9297 3.45312C61.3984 4.70312 59.8203 6.17188 58.1953 7.85938C56.6016 9.51562 55.1484 11.3125 53.8359 13.25C52.5234 15.1875 51.4453 17.2188 50.6016 19.3438C49.7891 21.4375 49.3828 23.5469 49.3828 25.6719C49.3828 25.7656 49.3828 25.9219 49.3828 26.1406C49.4141 26.3594 49.4297 26.5781 49.4297 26.7969C49.4609 27.0156 49.4922 27.2188 49.5234 27.4062C49.5547 27.5938 49.5703 27.7031 49.5703 27.7344C49.9141 28.0781 50.3203 28.2812 50.7891 28.3438C51.2891 28.4062 51.6641 28.4375 51.9141 28.4375C53.2578 28.4375 54.5078 28.2031 55.6641 27.7344C56.8516 27.2656 58.0078 26.7656 59.1328 26.2344C60.2578 25.6719 61.3828 25.1562 62.5078 24.6875C63.6641 24.2188 64.8828 23.9844 66.1641 23.9844C66.1641 24.4844 65.8672 25.0469 65.2734 25.6719C64.7109 26.2656 63.9609 26.8594 63.0234 27.4531C62.1172 28.0469 61.1016 28.625 59.9766 29.1875C58.8516 29.7188 57.7422 30.2031 56.6484 30.6406C55.5859 31.0781 54.6016 31.4219 53.6953 31.6719C52.8203 31.9219 52.1484 32.0469 51.6797 32.0469C50.9922 32.0469 50.3047 31.9219 49.6172 31.6719C48.9297 31.3906 48.3047 31.0156 47.7422 30.5469C47.2109 30.0781 46.7734 29.5312 46.4297 28.9062C46.0859 28.25 45.9141 27.5469 45.9141 26.7969ZM66.6172 28.9531C66.8984 27.1719 67.4297 25.5312 68.2109 24.0312C68.9922 22.5312 69.8828 21.2344 70.8828 20.1406C71.9141 19.0156 73.0234 18.0938 74.2109 17.375C75.3984 16.6562 76.5547 16.2031 77.6797 16.0156C78.8047 15.7969 79.8359 15.8438 80.7734 16.1562C81.7422 16.4688 82.5234 17.0938 83.1172 18.0312C83.1172 18.75 82.9453 19.4375 82.6016 20.0938C82.2891 20.75 81.9297 21.4062 81.5234 22.0625C81.1484 22.7188 80.7891 23.3906 80.4453 24.0781C80.1328 24.7656 79.9766 25.5 79.9766 26.2812C79.9766 27.0938 80.1484 27.75 80.4922 28.25C80.8672 28.7188 81.5078 28.9531 82.4141 28.9531C83.1641 28.9531 83.8828 28.8438 84.5703 28.625C85.2891 28.4062 86.0078 28.2969 86.7266 28.2969C86.8516 28.2969 87.0547 28.3125 87.3359 28.3438C87.6484 28.3438 87.8516 28.3438 87.9453 28.3438C87.5703 28.875 87.0859 29.3281 86.4922 29.7031C85.8984 30.0781 85.2734 30.4062 84.6172 30.6875C83.9609 30.9375 83.2734 31.125 82.5547 31.25C81.8672 31.375 81.2266 31.4375 80.6328 31.4375C80.0703 31.4375 79.5703 31.3125 79.1328 31.0625C78.6953 30.8125 78.3203 30.4844 78.0078 30.0781C77.6953 29.6719 77.4453 29.2188 77.2578 28.7188C77.1016 28.1875 77.0234 27.6719 77.0234 27.1719C76.5547 27.7031 76.0391 28.2656 75.4766 28.8594C74.9453 29.4219 74.3672 29.9375 73.7422 30.4062C73.1484 30.875 72.4922 31.2656 71.7734 31.5781C71.0859 31.8906 70.3672 32.0469 69.6172 32.0469C68.8047 32.0469 68.1016 31.75 67.5078 31.1562C66.9141 30.5312 66.6172 29.7969 66.6172 28.9531ZM69.7109 27.5C69.7109 27.75 69.7109 28.0312 69.7109 28.3438C69.7422 28.6562 69.9453 28.8594 70.3203 28.9531C71.1016 28.7656 71.9922 28.3594 72.9922 27.7344C73.9922 27.0781 74.9297 26.3281 75.8047 25.4844C76.6797 24.6094 77.4141 23.6875 78.0078 22.7188C78.6016 21.7188 78.8984 20.7656 78.8984 19.8594C78.8984 19.7969 78.8828 19.7031 78.8516 19.5781C78.8516 19.4219 78.8516 19.3125 78.8516 19.25C77.7891 19.25 76.7109 19.4688 75.6172 19.9062C74.5234 20.3438 73.5391 20.9531 72.6641 21.7344C71.7891 22.4844 71.0703 23.3594 70.5078 24.3594C69.9766 25.3594 69.7109 26.4062 69.7109 27.5ZM108.883 32.0469C108.289 32.0469 107.742 31.9375 107.242 31.7188C106.773 31.5 106.383 31.1875 106.07 30.7812C105.758 30.375 105.539 29.9219 105.414 29.4219C105.289 28.8906 105.305 28.3281 105.461 27.7344C105.461 26.7344 105.633 25.8125 105.977 24.9688C106.352 24.0938 106.758 23.2656 107.195 22.4844C107.664 21.6719 108.07 20.875 108.414 20.0938C108.789 19.2812 108.977 18.4219 108.977 17.5156C108.289 17.5156 107.555 17.7344 106.773 18.1719C105.992 18.6094 105.195 19.1875 104.383 19.9062C103.602 20.625 102.82 21.4375 102.039 22.3438C101.289 23.2188 100.57 24.1094 99.8828 25.0156C99.2266 25.8906 98.6484 26.7344 98.1484 27.5469C97.6797 28.3594 97.3203 29.0312 97.0703 29.5625C97.0078 29.5938 96.8516 29.625 96.6016 29.6562C96.3516 29.6562 96.1953 29.6562 96.1328 29.6562C95.6328 29.9062 95.3203 29.9062 95.1953 29.6562C95.1016 29.375 95.1016 28.9531 95.1953 28.3906C95.3203 27.8281 95.5078 27.2031 95.7578 26.5156C96.0078 25.7969 96.2422 25.125 96.4609 24.5C96.7109 23.8438 96.8984 23.3125 97.0234 22.9062C97.1484 22.4688 97.1641 22.25 97.0703 22.25C97.1641 22.125 97.2734 21.9219 97.3984 21.6406C97.5234 21.3594 97.6484 21.0625 97.7734 20.75C97.8984 20.4375 98.0078 20.1562 98.1016 19.9062C98.1953 19.625 98.2422 19.4062 98.2422 19.25C98.2422 18.9688 98.1328 18.7969 97.9141 18.7344C97.7266 18.6406 97.5391 18.5938 97.3516 18.5938C96.7891 18.2812 96.1797 18.4688 95.5234 19.1562C94.8984 19.8125 94.2109 20.7656 93.4609 22.0156C92.7422 23.2344 91.9453 24.6406 91.0703 26.2344C90.2266 27.7969 89.2891 29.3125 88.2578 30.7812C87.5391 30.7812 86.9922 30.6875 86.6172 30.5C86.2422 30.3125 86.0547 29.8438 86.0547 29.0938C86.3047 28.75 86.6797 28.1094 87.1797 27.1719C87.6797 26.2031 88.2422 25.1406 88.8672 23.9844C89.4922 22.8281 90.1484 21.6562 90.8359 20.4688C91.5547 19.2812 92.2266 18.2812 92.8516 17.4688C93.5078 16.625 94.0859 16.0625 94.5859 15.7812C95.1172 15.4688 95.5391 15.6094 95.8516 16.2031C96.3828 15.8594 96.9609 15.5625 97.5859 15.3125C98.2422 15.0625 98.8984 14.9375 99.5547 14.9375C99.9922 14.9375 100.352 15.0781 100.633 15.3594C100.945 15.6094 101.18 15.9375 101.336 16.3438C101.523 16.7188 101.664 17.125 101.758 17.5625C101.852 17.9688 101.898 18.3281 101.898 18.6406C102.242 18.4219 102.805 18.0469 103.586 17.5156C104.398 16.9531 105.258 16.3906 106.164 15.8281C107.102 15.2656 108.008 14.7812 108.883 14.375C109.789 13.9375 110.523 13.7188 111.086 13.7188C111.586 13.7188 112.008 13.9062 112.352 14.2812C112.727 14.625 112.914 15.0625 112.914 15.5938C111.789 18.3438 110.898 20.5469 110.242 22.2031C109.617 23.8594 109.195 25.1562 108.977 26.0938C108.789 27 108.789 27.6562 108.977 28.0625C109.195 28.4375 109.57 28.7344 110.102 28.9531C110.945 28.9531 111.758 28.8125 112.539 28.5312C113.32 28.25 114.086 27.9375 114.836 27.5938C115.617 27.25 116.398 26.9375 117.18 26.6562C117.961 26.375 118.789 26.2344 119.664 26.2344C119.664 26.5781 119.57 26.9062 119.383 27.2188C119.227 27.5 118.977 27.7188 118.633 27.875C118.383 28.0312 117.93 28.2812 117.273 28.625C116.648 28.9375 115.961 29.2812 115.211 29.6562C114.461 30 113.742 30.3438 113.055 30.6875C112.398 31.0312 111.93 31.2656 111.648 31.3906C111.023 31.6719 110.539 31.8594 110.195 31.9531C109.883 32.0156 109.445 32.0469 108.883 32.0469ZM112.289 45.125C112.289 45.0938 112.305 45.0312 112.336 44.9375C112.336 44.8438 112.336 44.7812 112.336 44.75C112.367 44.6562 112.414 44.5156 112.477 44.3281C112.539 44.1719 112.602 44 112.664 43.8125C112.727 43.625 112.789 43.4375 112.852 43.25C112.914 43.0938 112.961 42.9844 112.992 42.9219C113.18 42.4844 113.492 41.7812 113.93 40.8125C114.367 39.875 114.867 38.7969 115.43 37.5781C115.992 36.3906 116.586 35.1406 117.211 33.8281C117.805 32.5156 118.383 31.2656 118.945 30.0781C119.508 28.8594 120.008 27.7812 120.445 26.8438C120.914 25.875 121.258 25.1562 121.477 24.6875C121.883 24.0312 122.445 23.2656 123.164 22.3906C123.914 21.5156 124.742 20.625 125.648 19.7188C126.555 18.8125 127.523 17.9375 128.555 17.0938C129.617 16.2188 130.648 15.4531 131.648 14.7969C132.68 14.1094 133.68 13.5625 134.648 13.1562C135.617 12.7188 136.477 12.5 137.227 12.5C138.352 12.5 139.148 12.7031 139.617 13.1094C140.086 13.5156 140.32 14.3438 140.32 15.5938C140.32 16.9375 140.055 18.2812 139.523 19.625C139.023 20.9375 138.336 22.1875 137.461 23.375C136.586 24.5625 135.555 25.6406 134.367 26.6094C133.211 27.5781 131.977 28.375 130.664 29C129.383 29.625 128.055 30.0625 126.68 30.3125C125.305 30.5312 123.977 30.4844 122.695 30.1719L122.086 30.7812L115.992 45.9688C115.898 46.25 115.633 46.4219 115.195 46.4844C114.758 46.5781 114.398 46.625 114.117 46.625C113.711 46.625 113.305 46.4844 112.898 46.2031C112.492 45.9531 112.289 45.5938 112.289 45.125ZM134.227 22.2969C135.695 20.7344 136.648 19.5 137.086 18.5938C137.523 17.6562 137.617 17 137.367 16.625C137.117 16.25 136.617 16.1094 135.867 16.2031C135.117 16.2969 134.273 16.5625 133.336 17C132.398 17.4375 131.445 18.0156 130.477 18.7344C129.539 19.4531 128.758 20.2344 128.133 21.0781C127.852 21.3906 127.508 21.8125 127.102 22.3438C126.695 22.8438 126.289 23.3594 125.883 23.8906C125.508 24.3906 125.18 24.8438 124.898 25.25C124.617 25.6562 124.477 25.8906 124.477 25.9531V26.9375C126.633 26.9375 128.477 26.625 130.008 26C131.539 25.3438 132.945 24.1094 134.227 22.2969ZM142.039 29.5625C141.508 28.375 141.273 27.2188 141.336 26.0938C141.398 24.9375 141.648 23.8594 142.086 22.8594C142.555 21.8281 143.148 20.9062 143.867 20.0938C144.617 19.25 145.414 18.5312 146.258 17.9375C147.102 17.3125 147.945 16.8438 148.789 16.5312C149.664 16.2188 150.43 16.0938 151.086 16.1562C151.742 16.1875 152.258 16.4219 152.633 16.8594C153.008 17.2969 153.133 17.9688 153.008 18.875C153.008 20.0938 152.617 21.1562 151.836 22.0625C151.086 22.9688 150.242 23.7812 149.305 24.5C148.398 25.2188 147.555 25.875 146.773 26.4688C146.023 27.0312 145.648 27.5625 145.648 28.0625C145.648 28.3438 145.805 28.5625 146.117 28.7188C146.461 28.875 146.852 29 147.289 29.0938C147.727 29.1562 148.164 29.2031 148.602 29.2344C149.039 29.2656 149.352 29.2969 149.539 29.3281C152.477 28.7031 154.68 28.3281 156.148 28.2031C157.617 28.0469 158.539 28.0625 158.914 28.25C159.289 28.4062 159.211 28.6719 158.68 29.0469C158.18 29.3906 157.398 29.7656 156.336 30.1719C155.273 30.5469 154.039 30.8906 152.633 31.2031C151.227 31.5156 149.836 31.7031 148.461 31.7656C147.086 31.7969 145.805 31.6562 144.617 31.3438C143.461 31.0312 142.602 30.4375 142.039 29.5625ZM150.242 18.875C149.617 18.875 149.023 19.0469 148.461 19.3906C147.898 19.7344 147.383 20.1719 146.914 20.7031C146.477 21.2031 146.102 21.7656 145.789 22.3906C145.477 22.9844 145.242 23.5469 145.086 24.0781C145.148 24.1094 145.195 24.125 145.227 24.125H145.367C145.805 24.125 146.305 23.9375 146.867 23.5625C147.43 23.1875 147.961 22.7344 148.461 22.2031C148.961 21.6406 149.383 21.0625 149.727 20.4688C150.07 19.875 150.242 19.3438 150.242 18.875ZM167.992 28.3906C167.992 27.4531 168.18 26.5938 168.555 25.8125C168.961 25 169.398 24.2344 169.867 23.5156C170.336 22.7969 170.758 22.0781 171.133 21.3594C171.539 20.6406 171.742 19.875 171.742 19.0625C171.742 18.875 171.727 18.6562 171.695 18.4062C171.695 18.125 171.664 17.8594 171.602 17.6094C171.57 17.3594 171.477 17.1562 171.32 17C171.195 16.8125 171.023 16.7188 170.805 16.7188C170.773 16.7188 170.711 16.7344 170.617 16.7656C170.555 16.7656 170.523 16.7812 170.523 16.8125C170.086 17.4062 169.555 18.0781 168.93 18.8281C168.336 19.5469 167.695 20.2656 167.008 20.9844C166.32 21.7031 165.648 22.3906 164.992 23.0469C164.336 23.7031 163.742 24.25 163.211 24.6875C162.836 25.0312 162.32 25.5 161.664 26.0938C161.039 26.6875 160.398 27.2812 159.742 27.875C159.117 28.4375 158.555 28.9375 158.055 29.375C157.586 29.8125 157.32 30.0312 157.258 30.0312L155.102 28.2031C155.383 28.2031 155.664 28.1406 155.945 28.0156C156.195 27.8906 156.445 27.75 156.695 27.5938C158.57 26.3438 160.258 24.9062 161.758 23.2812C163.289 21.6562 164.789 19.9062 166.258 18.0312C166.32 17.9375 166.477 17.6719 166.727 17.2344C167.008 16.7656 167.305 16.25 167.617 15.6875C167.93 15.0938 168.242 14.5156 168.555 13.9531C168.867 13.3594 169.102 12.8906 169.258 12.5469C169.445 12.1406 169.555 11.8125 169.586 11.5625C169.648 11.3125 169.695 11.125 169.727 11C169.789 10.8438 169.883 10.7344 170.008 10.6719C170.133 10.6094 170.398 10.5781 170.805 10.5781C170.867 10.5781 171.008 10.5938 171.227 10.625C171.477 10.6562 171.633 10.6875 171.695 10.7188C172.102 11.5625 172.461 12.3125 172.773 12.9688C173.086 13.625 173.352 14.25 173.57 14.8438C173.789 15.4062 173.945 15.9844 174.039 16.5781C174.164 17.1719 174.227 17.8281 174.227 18.5469C173.82 19.5781 173.367 20.6406 172.867 21.7344C172.367 22.7969 171.945 23.8125 171.602 24.7812C171.258 25.75 171.039 26.625 170.945 27.4062C170.883 28.1875 171.055 28.8125 171.461 29.2812C171.898 29.7188 172.617 29.9531 173.617 29.9844C174.648 30.0156 176.102 29.75 177.977 29.1875C178.477 29.4375 178.523 29.75 178.117 30.125C177.711 30.4688 177.086 30.7969 176.242 31.1094C175.43 31.4219 174.523 31.6875 173.523 31.9062C172.555 32.0938 171.742 32.1406 171.086 32.0469C170.492 32.0469 169.992 31.9531 169.586 31.7656C169.211 31.5469 168.898 31.2656 168.648 30.9219C168.43 30.5781 168.258 30.1875 168.133 29.75C168.039 29.3125 167.992 28.8594 167.992 28.3906Z" fill="white"/>
<path d="M32.7656 47.6378C32.7277 47.3016 32.5715 47.0412 32.2969 46.8565C32.0223 46.6695 31.6766 46.576 31.2599 46.576C30.9616 46.576 30.7036 46.6233 30.4858 46.718C30.268 46.8104 30.0987 46.9382 29.978 47.1016C29.8596 47.2625 29.8004 47.446 29.8004 47.652C29.8004 47.8248 29.8407 47.974 29.9212 48.0994C30.004 48.2249 30.1117 48.3303 30.2443 48.4155C30.3793 48.4983 30.5237 48.5682 30.6776 48.625C30.8314 48.6795 30.9794 48.7244 31.1214 48.7599L31.8317 48.9446C32.0637 49.0014 32.3016 49.0784 32.5455 49.1754C32.7893 49.2725 33.0154 49.4003 33.2237 49.5589C33.4321 49.7176 33.6001 49.9141 33.728 50.1484C33.8582 50.3828 33.9233 50.6634 33.9233 50.9901C33.9233 51.402 33.8168 51.7678 33.6037 52.0874C33.393 52.407 33.0864 52.6591 32.6839 52.8438C32.2839 53.0284 31.7997 53.1207 31.2315 53.1207C30.687 53.1207 30.2159 53.0343 29.8182 52.8615C29.4205 52.6887 29.1091 52.4437 28.8842 52.1264C28.6593 51.8068 28.535 51.428 28.5114 50.9901H29.6122C29.6335 51.2528 29.7188 51.4718 29.8679 51.647C30.0194 51.8198 30.2124 51.9489 30.4467 52.0341C30.6835 52.117 30.9427 52.1584 31.2244 52.1584C31.5346 52.1584 31.8104 52.1098 32.0518 52.0128C32.2957 51.9134 32.4875 51.776 32.6271 51.6009C32.7668 51.4233 32.8366 51.2161 32.8366 50.9794C32.8366 50.764 32.7751 50.5876 32.652 50.4503C32.5313 50.313 32.3667 50.1993 32.1584 50.1094C31.9524 50.0194 31.7192 49.9401 31.4588 49.8714L30.5994 49.6371C30.017 49.4785 29.5554 49.2453 29.2145 48.9375C28.8759 48.6297 28.7067 48.2225 28.7067 47.7159C28.7067 47.2969 28.8203 46.9311 29.0476 46.6186C29.2749 46.3061 29.5826 46.0634 29.9709 45.8906C30.3591 45.7154 30.7971 45.6278 31.2848 45.6278C31.7772 45.6278 32.2116 45.7143 32.5881 45.8871C32.9669 46.0599 33.2652 46.2978 33.483 46.6009C33.7008 46.9015 33.8144 47.2472 33.8239 47.6378H32.7656ZM34.8993 55.0455V47.5455H35.9363V48.4297H36.025C36.0866 48.3161 36.1754 48.1847 36.2914 48.0355C36.4074 47.8864 36.5684 47.7562 36.7743 47.6449C36.9803 47.5312 37.2525 47.4744 37.5911 47.4744C38.0314 47.4744 38.4244 47.5857 38.7701 47.8082C39.1157 48.0308 39.3868 48.3516 39.5833 48.7706C39.7821 49.1896 39.8816 49.6939 39.8816 50.2834C39.8816 50.8729 39.7833 51.3783 39.5868 51.7997C39.3903 52.2187 39.1204 52.5419 38.7772 52.7692C38.4339 52.9941 38.0421 53.1065 37.6017 53.1065C37.2703 53.1065 36.9992 53.0509 36.7885 52.9396C36.5802 52.8284 36.4168 52.6982 36.2985 52.549C36.1801 52.3999 36.089 52.2673 36.025 52.1513H35.9611V55.0455H34.8993ZM35.9398 50.2727C35.9398 50.6562 35.9954 50.9924 36.1067 51.2812C36.218 51.5701 36.379 51.7962 36.5897 51.9595C36.8004 52.1205 37.0584 52.201 37.3638 52.201C37.681 52.201 37.9462 52.117 38.1593 51.9489C38.3723 51.7784 38.5333 51.5476 38.6422 51.2564C38.7535 50.9652 38.8091 50.6373 38.8091 50.2727C38.8091 49.9129 38.7547 49.5897 38.6458 49.3033C38.5392 49.0168 38.3783 48.7907 38.1628 48.625C37.9498 48.4593 37.6834 48.3764 37.3638 48.3764C37.056 48.3764 36.7956 48.4557 36.5826 48.6143C36.3719 48.773 36.2121 48.9943 36.1032 49.2784C35.9943 49.5625 35.9398 49.8939 35.9398 50.2727ZM40.8212 53V47.5455H41.883V53H40.8212ZM41.3574 46.7038C41.1728 46.7038 41.0141 46.6423 40.8816 46.5192C40.7514 46.3937 40.6863 46.2446 40.6863 46.0717C40.6863 45.8965 40.7514 45.7474 40.8816 45.6243C41.0141 45.4988 41.1728 45.4361 41.3574 45.4361C41.5421 45.4361 41.6995 45.4988 41.8297 45.6243C41.9623 45.7474 42.0286 45.8965 42.0286 46.0717C42.0286 46.2446 41.9623 46.3937 41.8297 46.5192C41.6995 46.6423 41.5421 46.7038 41.3574 46.7038ZM43.0614 53V47.5455H44.0877V48.4119H44.1445C44.244 48.1184 44.4192 47.8875 44.6701 47.7195C44.9234 47.549 45.2099 47.4638 45.5295 47.4638C45.5958 47.4638 45.6739 47.4661 45.7638 47.4709C45.8562 47.4756 45.9284 47.4815 45.9805 47.4886V48.5043C45.9379 48.4924 45.8621 48.4794 45.7532 48.4652C45.6443 48.4486 45.5354 48.4403 45.4265 48.4403C45.1755 48.4403 44.9518 48.4936 44.7553 48.6001C44.5612 48.7043 44.4073 48.8499 44.2937 49.0369C44.18 49.2216 44.1232 49.4323 44.1232 49.669V53H43.0614ZM46.6493 53V47.5455H47.7111V53H46.6493ZM47.1855 46.7038C47.0009 46.7038 46.8423 46.6423 46.7097 46.5192C46.5795 46.3937 46.5144 46.2446 46.5144 46.0717C46.5144 45.8965 46.5795 45.7474 46.7097 45.6243C46.8423 45.4988 47.0009 45.4361 47.1855 45.4361C47.3702 45.4361 47.5276 45.4988 47.6578 45.6243C47.7904 45.7474 47.8567 45.8965 47.8567 46.0717C47.8567 46.2446 47.7904 46.3937 47.6578 46.5192C47.5276 46.6423 47.3702 46.7038 47.1855 46.7038ZM51.4357 47.5455V48.3977H48.4563V47.5455H51.4357ZM49.2553 46.2386H50.3171V51.3984C50.3171 51.6044 50.3479 51.7595 50.4094 51.8636C50.471 51.9654 50.5503 52.0353 50.6474 52.0732C50.7468 52.1087 50.8545 52.1264 50.9705 52.1264C51.0558 52.1264 51.1303 52.1205 51.1942 52.1087C51.2582 52.0968 51.3079 52.0874 51.3434 52.0803L51.5352 52.9574C51.4736 52.9811 51.386 53.0047 51.2724 53.0284C51.1587 53.0545 51.0167 53.0687 50.8462 53.071C50.5669 53.0758 50.3065 53.026 50.065 52.9219C49.8235 52.8177 49.6282 52.6567 49.479 52.4389C49.3299 52.2211 49.2553 51.9477 49.2553 51.6186V46.2386ZM55.8155 50.7379V47.5455H56.8809V53H55.8368V52.0554H55.78C55.6545 52.3466 55.4533 52.5893 55.1763 52.7834C54.9017 52.9751 54.5596 53.071 54.15 53.071C53.7997 53.071 53.4895 52.9941 53.2196 52.8402C52.9521 52.6839 52.7414 52.4531 52.5875 52.1477C52.436 51.8423 52.3603 51.4647 52.3603 51.0149V47.5455H53.4221V50.8871C53.4221 51.2588 53.525 51.5547 53.731 51.7749C53.937 51.995 54.2045 52.1051 54.5336 52.1051C54.7324 52.1051 54.9301 52.0554 55.1266 51.956C55.3255 51.8565 55.49 51.7062 55.6202 51.505C55.7528 51.3037 55.8179 51.0481 55.8155 50.7379ZM59.6449 53.1207C59.2992 53.1207 58.9867 53.0568 58.7074 52.929C58.428 52.7988 58.2067 52.6106 58.0433 52.3643C57.8823 52.1181 57.8018 51.8163 57.8018 51.4588C57.8018 51.151 57.861 50.8977 57.9794 50.6989C58.0978 50.5 58.2576 50.3426 58.4588 50.2266C58.66 50.1106 58.8849 50.023 59.1335 49.9638C59.3821 49.9046 59.6354 49.8596 59.8935 49.8288C60.2202 49.791 60.4853 49.7602 60.6889 49.7365C60.8925 49.7105 61.0405 49.669 61.1328 49.6122C61.2251 49.5554 61.2713 49.4631 61.2713 49.3352V49.3104C61.2713 49.0002 61.1837 48.7599 61.0085 48.5895C60.8357 48.419 60.5777 48.3338 60.2344 48.3338C59.8769 48.3338 59.5952 48.4131 59.3892 48.5717C59.1856 48.728 59.0447 48.902 58.9666 49.0938L57.9688 48.8665C58.0871 48.535 58.2599 48.2675 58.4872 48.0639C58.7169 47.858 58.9808 47.7088 59.2791 47.6165C59.5774 47.5218 59.8911 47.4744 60.2202 47.4744C60.438 47.4744 60.6688 47.5005 60.9126 47.5526C61.1589 47.6023 61.3885 47.6946 61.6016 47.8295C61.817 47.9645 61.9934 48.1574 62.1307 48.4084C62.268 48.657 62.3366 48.9801 62.3366 49.3778V53H61.2997V52.2543H61.2571C61.1884 52.3916 61.0855 52.5265 60.9482 52.6591C60.8108 52.7917 60.6345 52.9018 60.419 52.9893C60.2036 53.0769 59.9455 53.1207 59.6449 53.1207ZM59.8757 52.2685C60.1693 52.2685 60.4202 52.2105 60.6286 52.0945C60.8393 51.9785 60.9991 51.8269 61.108 51.6399C61.2192 51.4505 61.2749 51.2481 61.2749 51.0327V50.3295C61.237 50.3674 61.1636 50.4029 61.0547 50.4361C60.9482 50.4669 60.8262 50.4941 60.6889 50.5178C60.5516 50.5391 60.4179 50.5592 60.2876 50.5781C60.1574 50.5947 60.0485 50.6089 59.9609 50.6207C59.755 50.6468 59.5668 50.6906 59.3963 50.7521C59.2282 50.8137 59.0933 50.9025 58.9915 51.0185C58.892 51.1321 58.8423 51.2836 58.8423 51.473C58.8423 51.7358 58.9394 51.9347 59.1335 52.0696C59.3277 52.2022 59.575 52.2685 59.8757 52.2685ZM64.5627 45.7273V53H63.5009V45.7273H64.5627ZM68.2228 53V45.7273H70.8152C71.3786 45.7273 71.8462 45.8243 72.2179 46.0185C72.5919 46.2126 72.8713 46.4813 73.0559 46.8246C73.2406 47.1655 73.3329 47.5597 73.3329 48.0071C73.3329 48.4522 73.2394 48.844 73.0524 49.1825C72.8677 49.5187 72.5884 49.7803 72.2143 49.9673C71.8426 50.1544 71.3751 50.2479 70.8116 50.2479H68.8478V49.3033H70.7122C71.0673 49.3033 71.3561 49.2524 71.5787 49.1506C71.8036 49.0488 71.9681 48.9008 72.0723 48.7067C72.1764 48.5125 72.2285 48.2794 72.2285 48.0071C72.2285 47.7325 72.1752 47.4946 72.0687 47.2933C71.9645 47.0921 71.8 46.9382 71.5751 46.8317C71.3526 46.7228 71.0602 46.6683 70.698 46.6683H69.3201V53H68.2228ZM71.813 49.7188L73.6099 53H72.3599L70.5985 49.7188H71.813ZM76.6154 53.1101C76.078 53.1101 75.6152 52.9953 75.2269 52.7656C74.841 52.5336 74.5427 52.2081 74.332 51.7891C74.1237 51.3677 74.0195 50.8741 74.0195 50.3082C74.0195 49.7495 74.1237 49.2571 74.332 48.831C74.5427 48.4048 74.8363 48.0722 75.2127 47.8331C75.5915 47.594 76.0342 47.4744 76.5408 47.4744C76.8486 47.4744 77.1469 47.5253 77.4357 47.6271C77.7246 47.7289 77.9838 47.8887 78.2134 48.1065C78.4431 48.3243 78.6242 48.6072 78.7567 48.9553C78.8893 49.3009 78.9556 49.7211 78.9556 50.2159V50.5923H74.6197V49.7969H77.9151C77.9151 49.5175 77.8583 49.2701 77.7447 49.0547C77.631 48.8369 77.4712 48.6652 77.2653 48.5398C77.0617 48.4143 76.8226 48.3516 76.5479 48.3516C76.2496 48.3516 75.9892 48.425 75.7667 48.5717C75.5465 48.7161 75.3761 48.9055 75.2553 49.1399C75.137 49.3719 75.0778 49.6241 75.0778 49.8963V50.5178C75.0778 50.8823 75.1417 51.1925 75.2695 51.4482C75.3997 51.7038 75.5808 51.8991 75.8129 52.0341C76.0449 52.1667 76.3159 52.233 76.6261 52.233C76.8273 52.233 77.0108 52.2045 77.1765 52.1477C77.3422 52.0885 77.4854 52.0009 77.6062 51.8849C77.7269 51.7689 77.8192 51.6257 77.8832 51.4553L78.8881 51.6364C78.8076 51.9323 78.6632 52.1915 78.4549 52.4141C78.2489 52.6342 77.9897 52.8059 77.6772 52.929C77.3671 53.0497 77.0131 53.1101 76.6154 53.1101ZM82.4299 47.5455V48.3977H79.4505V47.5455H82.4299ZM80.2495 46.2386H81.3113V51.3984C81.3113 51.6044 81.342 51.7595 81.4036 51.8636C81.4651 51.9654 81.5444 52.0353 81.6415 52.0732C81.7409 52.1087 81.8487 52.1264 81.9647 52.1264C82.0499 52.1264 82.1245 52.1205 82.1884 52.1087C82.2523 52.0968 82.302 52.0874 82.3375 52.0803L82.5293 52.9574C82.4677 52.9811 82.3801 53.0047 82.2665 53.0284C82.1529 53.0545 82.0108 53.0687 81.8404 53.071C81.561 53.0758 81.3006 53.026 81.0591 52.9219C80.8176 52.8177 80.6223 52.6567 80.4732 52.4389C80.324 52.2211 80.2495 51.9477 80.2495 51.6186V46.2386ZM83.3544 53V47.5455H84.3807V48.4119H84.4375C84.5369 48.1184 84.7121 47.8875 84.9631 47.7195C85.2164 47.549 85.5028 47.4638 85.8224 47.4638C85.8887 47.4638 85.9669 47.4661 86.0568 47.4709C86.1491 47.4756 86.2214 47.4815 86.2734 47.4886V48.5043C86.2308 48.4924 86.1551 48.4794 86.0462 48.4652C85.9373 48.4486 85.8284 48.4403 85.7195 48.4403C85.4685 48.4403 85.2448 48.4936 85.0483 48.6001C84.8542 48.7043 84.7003 48.8499 84.5866 49.0369C84.473 49.2216 84.4162 49.4323 84.4162 49.669V53H83.3544ZM89.0978 53.1101C88.5604 53.1101 88.0976 52.9953 87.7093 52.7656C87.3234 52.5336 87.0252 52.2081 86.8145 51.7891C86.6061 51.3677 86.502 50.8741 86.502 50.3082C86.502 49.7495 86.6061 49.2571 86.8145 48.831C87.0252 48.4048 87.3187 48.0722 87.6951 47.8331C88.0739 47.594 88.5166 47.4744 89.0233 47.4744C89.331 47.4744 89.6293 47.5253 89.9181 47.6271C90.207 47.7289 90.4662 47.8887 90.6958 48.1065C90.9255 48.3243 91.1066 48.6072 91.2392 48.9553C91.3717 49.3009 91.438 49.7211 91.438 50.2159V50.5923H87.1021V49.7969H90.3975C90.3975 49.5175 90.3407 49.2701 90.2271 49.0547C90.1135 48.8369 89.9537 48.6652 89.7477 48.5398C89.5441 48.4143 89.305 48.3516 89.0304 48.3516C88.7321 48.3516 88.4717 48.425 88.2491 48.5717C88.0289 48.7161 87.8585 48.9055 87.7377 49.1399C87.6194 49.3719 87.5602 49.6241 87.5602 49.8963V50.5178C87.5602 50.8823 87.6241 51.1925 87.752 51.4482C87.8822 51.7038 88.0633 51.8991 88.2953 52.0341C88.5273 52.1667 88.7984 52.233 89.1085 52.233C89.3097 52.233 89.4932 52.2045 89.6589 52.1477C89.8246 52.0885 89.9679 52.0009 90.0886 51.8849C90.2093 51.7689 90.3017 51.6257 90.3656 51.4553L91.3706 51.6364C91.2901 51.9323 91.1457 52.1915 90.9373 52.4141C90.7314 52.6342 90.4721 52.8059 90.1596 52.929C89.8495 53.0497 89.4956 53.1101 89.0978 53.1101ZM93.9535 53.1207C93.6078 53.1207 93.2953 53.0568 93.016 52.929C92.7366 52.7988 92.5153 52.6106 92.3519 52.3643C92.1909 52.1181 92.1104 51.8163 92.1104 51.4588C92.1104 51.151 92.1696 50.8977 92.288 50.6989C92.4064 50.5 92.5662 50.3426 92.7674 50.2266C92.9686 50.1106 93.1935 50.023 93.4421 49.9638C93.6907 49.9046 93.944 49.8596 94.2021 49.8288C94.5288 49.791 94.7939 49.7602 94.9975 49.7365C95.2011 49.7105 95.3491 49.669 95.4414 49.6122C95.5337 49.5554 95.5799 49.4631 95.5799 49.3352V49.3104C95.5799 49.0002 95.4923 48.7599 95.3171 48.5895C95.1443 48.419 94.8862 48.3338 94.543 48.3338C94.1855 48.3338 93.9038 48.4131 93.6978 48.5717C93.4942 48.728 93.3533 48.902 93.2752 49.0938L92.2773 48.8665C92.3957 48.535 92.5685 48.2675 92.7958 48.0639C93.0254 47.858 93.2894 47.7088 93.5877 47.6165C93.886 47.5218 94.1997 47.4744 94.5288 47.4744C94.7466 47.4744 94.9774 47.5005 95.2212 47.5526C95.4674 47.6023 95.6971 47.6946 95.9102 47.8295C96.1256 47.9645 96.302 48.1574 96.4393 48.4084C96.5766 48.657 96.6452 48.9801 96.6452 49.3778V53H95.6083V52.2543H95.5657C95.497 52.3916 95.3941 52.5265 95.2567 52.6591C95.1194 52.7917 94.9431 52.9018 94.7276 52.9893C94.5122 53.0769 94.2541 53.1207 93.9535 53.1207ZM94.1843 52.2685C94.4779 52.2685 94.7288 52.2105 94.9371 52.0945C95.1478 51.9785 95.3076 51.8269 95.4165 51.6399C95.5278 51.4505 95.5835 51.2481 95.5835 51.0327V50.3295C95.5456 50.3674 95.4722 50.4029 95.3633 50.4361C95.2567 50.4669 95.1348 50.4941 94.9975 50.5178C94.8602 50.5391 94.7264 50.5592 94.5962 50.5781C94.466 50.5947 94.3571 50.6089 94.2695 50.6207C94.0636 50.6468 93.8754 50.6906 93.7049 50.7521C93.5368 50.8137 93.4019 50.9025 93.3001 51.0185C93.2006 51.1321 93.1509 51.2836 93.1509 51.473C93.1509 51.7358 93.248 51.9347 93.4421 52.0696C93.6362 52.2022 93.8836 52.2685 94.1843 52.2685ZM100.356 47.5455V48.3977H97.3762V47.5455H100.356ZM98.1752 46.2386H99.237V51.3984C99.237 51.6044 99.2678 51.7595 99.3294 51.8636C99.3909 51.9654 99.4702 52.0353 99.5673 52.0732C99.6667 52.1087 99.7744 52.1264 99.8904 52.1264C99.9757 52.1264 100.05 52.1205 100.114 52.1087C100.178 52.0968 100.228 52.0874 100.263 52.0803L100.455 52.9574C100.394 52.9811 100.306 53.0047 100.192 53.0284C100.079 53.0545 99.9366 53.0687 99.7662 53.071C99.4868 53.0758 99.2264 53.026 98.9849 52.9219C98.7434 52.8177 98.5481 52.6567 98.399 52.4389C98.2498 52.2211 98.1752 51.9477 98.1752 51.6186V46.2386ZM105.28 48.8771L104.317 49.0476C104.277 48.9245 104.213 48.8073 104.126 48.696C104.04 48.5848 103.924 48.4936 103.778 48.4226C103.631 48.3516 103.447 48.3161 103.227 48.3161C102.926 48.3161 102.675 48.3835 102.474 48.5185C102.273 48.651 102.172 48.8227 102.172 49.0334C102.172 49.2157 102.24 49.3625 102.375 49.4737C102.51 49.585 102.728 49.6761 103.028 49.7472L103.895 49.946C104.397 50.062 104.771 50.2408 105.017 50.4822C105.263 50.7237 105.386 51.0374 105.386 51.4233C105.386 51.75 105.291 52.0412 105.102 52.2969C104.915 52.5502 104.653 52.7491 104.317 52.8935C103.983 53.0379 103.596 53.1101 103.156 53.1101C102.545 53.1101 102.047 52.9799 101.661 52.7195C101.275 52.4567 101.038 52.0838 100.951 51.6009L101.977 51.4446C102.041 51.7121 102.172 51.9145 102.371 52.0518C102.57 52.1868 102.829 52.2543 103.149 52.2543C103.497 52.2543 103.775 52.1821 103.983 52.0376C104.192 51.8909 104.296 51.7121 104.296 51.5014C104.296 51.331 104.232 51.1877 104.104 51.0717C103.979 50.9557 103.786 50.8681 103.525 50.8089L102.602 50.6065C102.093 50.4905 101.717 50.3059 101.473 50.0526C101.231 49.7992 101.111 49.4785 101.111 49.0902C101.111 48.7682 101.201 48.4865 101.381 48.245C101.56 48.0036 101.809 47.8153 102.126 47.6804C102.443 47.5431 102.807 47.4744 103.216 47.4744C103.806 47.4744 104.27 47.6023 104.608 47.858C104.947 48.1113 105.171 48.451 105.28 48.8771ZM111.296 47.5455V48.3977H108.214V47.5455H111.296ZM109.059 53V46.9134C109.059 46.5724 109.133 46.2895 109.282 46.0646C109.432 45.8374 109.629 45.6681 109.876 45.5568C110.122 45.4432 110.389 45.3864 110.678 45.3864C110.891 45.3864 111.073 45.4041 111.225 45.4396C111.376 45.4728 111.489 45.5036 111.562 45.532L111.314 46.3913C111.264 46.3771 111.2 46.3606 111.122 46.3416C111.044 46.3203 110.949 46.3097 110.838 46.3097C110.58 46.3097 110.395 46.3736 110.284 46.5014C110.175 46.6293 110.121 46.8139 110.121 47.0554V53H109.059ZM114.224 53.1101C113.713 53.1101 113.267 52.9929 112.885 52.7585C112.504 52.5241 112.208 52.1963 111.998 51.7749C111.787 51.3535 111.682 50.861 111.682 50.2976C111.682 49.7318 111.787 49.237 111.998 48.8132C112.208 48.3894 112.504 48.0604 112.885 47.826C113.267 47.5916 113.713 47.4744 114.224 47.4744C114.736 47.4744 115.182 47.5916 115.563 47.826C115.944 48.0604 116.24 48.3894 116.451 48.8132C116.662 49.237 116.767 49.7318 116.767 50.2976C116.767 50.861 116.662 51.3535 116.451 51.7749C116.24 52.1963 115.944 52.5241 115.563 52.7585C115.182 52.9929 114.736 53.1101 114.224 53.1101ZM114.228 52.2188C114.559 52.2188 114.834 52.1312 115.052 51.956C115.269 51.7808 115.43 51.5476 115.535 51.2564C115.641 50.9652 115.694 50.6444 115.694 50.294C115.694 49.946 115.641 49.6264 115.535 49.3352C115.43 49.0417 115.269 48.8061 115.052 48.6286C114.834 48.451 114.559 48.3622 114.228 48.3622C113.894 48.3622 113.617 48.451 113.397 48.6286C113.179 48.8061 113.017 49.0417 112.91 49.3352C112.806 49.6264 112.754 49.946 112.754 50.294C112.754 50.6444 112.806 50.9652 112.91 51.2564C113.017 51.5476 113.179 51.7808 113.397 51.956C113.617 52.1312 113.894 52.2188 114.228 52.2188ZM117.702 53V47.5455H118.728V48.4119H118.785C118.885 48.1184 119.06 47.8875 119.311 47.7195C119.564 47.549 119.85 47.4638 120.17 47.4638C120.236 47.4638 120.315 47.4661 120.404 47.4709C120.497 47.4756 120.569 47.4815 120.621 47.4886V48.5043C120.578 48.4924 120.503 48.4794 120.394 48.4652C120.285 48.4486 120.176 48.4403 120.067 48.4403C119.816 48.4403 119.592 48.4936 119.396 48.6001C119.202 48.7043 119.048 48.8499 118.934 49.0369C118.821 49.2216 118.764 49.4323 118.764 49.669V53H117.702ZM127.738 47.6378C127.7 47.3016 127.544 47.0412 127.27 46.8565C126.995 46.6695 126.649 46.576 126.233 46.576C125.934 46.576 125.676 46.6233 125.458 46.718C125.241 46.8104 125.071 46.9382 124.951 47.1016C124.832 47.2625 124.773 47.446 124.773 47.652C124.773 47.8248 124.813 47.974 124.894 48.0994C124.977 48.2249 125.084 48.3303 125.217 48.4155C125.352 48.4983 125.496 48.5682 125.65 48.625C125.804 48.6795 125.952 48.7244 126.094 48.7599L126.804 48.9446C127.036 49.0014 127.274 49.0784 127.518 49.1754C127.762 49.2725 127.988 49.4003 128.196 49.5589C128.405 49.7176 128.573 49.9141 128.701 50.1484C128.831 50.3828 128.896 50.6634 128.896 50.9901C128.896 51.402 128.789 51.7678 128.576 52.0874C128.366 52.407 128.059 52.6591 127.657 52.8438C127.257 53.0284 126.772 53.1207 126.204 53.1207C125.66 53.1207 125.189 53.0343 124.791 52.8615C124.393 52.6887 124.082 52.4437 123.857 52.1264C123.632 51.8068 123.508 51.428 123.484 50.9901H124.585C124.606 51.2528 124.691 51.4718 124.841 51.647C124.992 51.8198 125.185 51.9489 125.419 52.0341C125.656 52.117 125.915 52.1584 126.197 52.1584C126.507 52.1584 126.783 52.1098 127.025 52.0128C127.268 51.9134 127.46 51.776 127.6 51.6009C127.739 51.4233 127.809 51.2161 127.809 50.9794C127.809 50.764 127.748 50.5876 127.625 50.4503C127.504 50.313 127.339 50.1993 127.131 50.1094C126.925 50.0194 126.692 49.9401 126.431 49.8714L125.572 49.6371C124.99 49.4785 124.528 49.2453 124.187 48.9375C123.849 48.6297 123.679 48.2225 123.679 47.7159C123.679 47.2969 123.793 46.9311 124.02 46.6186C124.248 46.3061 124.555 46.0634 124.944 45.8906C125.332 45.7154 125.77 45.6278 126.257 45.6278C126.75 45.6278 127.184 45.7143 127.561 45.8871C127.94 46.0599 128.238 46.2978 128.456 46.6009C128.673 46.9015 128.787 47.2472 128.797 47.6378H127.738ZM129.872 55.0455V47.5455H130.909V48.4297H130.998C131.059 48.3161 131.148 48.1847 131.264 48.0355C131.38 47.8864 131.541 47.7562 131.747 47.6449C131.953 47.5312 132.225 47.4744 132.564 47.4744C133.004 47.4744 133.397 47.5857 133.743 47.8082C134.088 48.0308 134.359 48.3516 134.556 48.7706C134.755 49.1896 134.854 49.6939 134.854 50.2834C134.854 50.8729 134.756 51.3783 134.559 51.7997C134.363 52.2187 134.093 52.5419 133.75 52.7692C133.407 52.9941 133.015 53.1065 132.574 53.1065C132.243 53.1065 131.972 53.0509 131.761 52.9396C131.553 52.8284 131.39 52.6982 131.271 52.549C131.153 52.3999 131.062 52.2673 130.998 52.1513H130.934V55.0455H129.872ZM130.912 50.2727C130.912 50.6562 130.968 50.9924 131.079 51.2812C131.191 51.5701 131.352 51.7962 131.562 51.9595C131.773 52.1205 132.031 52.201 132.336 52.201C132.654 52.201 132.919 52.117 133.132 51.9489C133.345 51.7784 133.506 51.5476 133.615 51.2564C133.726 50.9652 133.782 50.6373 133.782 50.2727C133.782 49.9129 133.727 49.5897 133.618 49.3033C133.512 49.0168 133.351 48.7907 133.135 48.625C132.922 48.4593 132.656 48.3764 132.336 48.3764C132.029 48.3764 131.768 48.4557 131.555 48.6143C131.345 48.773 131.185 48.9943 131.076 49.2784C130.967 49.5625 130.912 49.8939 130.912 50.2727ZM135.794 53V47.5455H136.856V53H135.794ZM136.33 46.7038C136.145 46.7038 135.987 46.6423 135.854 46.5192C135.724 46.3937 135.659 46.2446 135.659 46.0717C135.659 45.8965 135.724 45.7474 135.854 45.6243C135.987 45.4988 136.145 45.4361 136.33 45.4361C136.515 45.4361 136.672 45.4988 136.802 45.6243C136.935 45.7474 137.001 45.8965 137.001 46.0717C137.001 46.2446 136.935 46.3937 136.802 46.5192C136.672 46.6423 136.515 46.7038 136.33 46.7038ZM138.034 53V47.5455H139.06V48.4119H139.117C139.217 48.1184 139.392 47.8875 139.643 47.7195C139.896 47.549 140.183 47.4638 140.502 47.4638C140.568 47.4638 140.647 47.4661 140.737 47.4709C140.829 47.4756 140.901 47.4815 140.953 47.4886V48.5043C140.911 48.4924 140.835 48.4794 140.726 48.4652C140.617 48.4486 140.508 48.4403 140.399 48.4403C140.148 48.4403 139.924 48.4936 139.728 48.6001C139.534 48.7043 139.38 48.8499 139.266 49.0369C139.153 49.2216 139.096 49.4323 139.096 49.669V53H138.034ZM141.622 53V47.5455H142.684V53H141.622ZM142.158 46.7038C141.974 46.7038 141.815 46.6423 141.682 46.5192C141.552 46.3937 141.487 46.2446 141.487 46.0717C141.487 45.8965 141.552 45.7474 141.682 45.6243C141.815 45.4988 141.974 45.4361 142.158 45.4361C142.343 45.4361 142.5 45.4988 142.631 45.6243C142.763 45.7474 142.829 45.8965 142.829 46.0717C142.829 46.2446 142.763 46.3937 142.631 46.5192C142.5 46.6423 142.343 46.7038 142.158 46.7038ZM146.408 47.5455V48.3977H143.429V47.5455H146.408ZM144.228 46.2386H145.29V51.3984C145.29 51.6044 145.321 51.7595 145.382 51.8636C145.444 51.9654 145.523 52.0353 145.62 52.0732C145.719 52.1087 145.827 52.1264 145.943 52.1264C146.028 52.1264 146.103 52.1205 146.167 52.1087C146.231 52.0968 146.281 52.0874 146.316 52.0803L146.508 52.9574C146.446 52.9811 146.359 53.0047 146.245 53.0284C146.131 53.0545 145.989 53.0687 145.819 53.071C145.54 53.0758 145.279 53.026 145.038 52.9219C144.796 52.8177 144.601 52.6567 144.452 52.4389C144.303 52.2211 144.228 51.9477 144.228 51.6186V46.2386ZM150.788 50.7379V47.5455H151.854V53H150.809V52.0554H150.753C150.627 52.3466 150.426 52.5893 150.149 52.7834C149.874 52.9751 149.532 53.071 149.123 53.071C148.772 53.071 148.462 52.9941 148.192 52.8402C147.925 52.6839 147.714 52.4531 147.56 52.1477C147.409 51.8423 147.333 51.4647 147.333 51.0149V47.5455H148.395V50.8871C148.395 51.2588 148.498 51.5547 148.704 51.7749C148.91 51.995 149.177 52.1051 149.506 52.1051C149.705 52.1051 149.903 52.0554 150.099 51.956C150.298 51.8565 150.463 51.7062 150.593 51.505C150.725 51.3037 150.791 51.0481 150.788 50.7379ZM154.618 53.1207C154.272 53.1207 153.959 53.0568 153.68 52.929C153.401 52.7988 153.179 52.6106 153.016 52.3643C152.855 52.1181 152.775 51.8163 152.775 51.4588C152.775 51.151 152.834 50.8977 152.952 50.6989C153.07 50.5 153.23 50.3426 153.431 50.2266C153.633 50.1106 153.858 50.023 154.106 49.9638C154.355 49.9046 154.608 49.8596 154.866 49.8288C155.193 49.791 155.458 49.7602 155.662 49.7365C155.865 49.7105 156.013 49.669 156.105 49.6122C156.198 49.5554 156.244 49.4631 156.244 49.3352V49.3104C156.244 49.0002 156.156 48.7599 155.981 48.5895C155.808 48.419 155.55 48.3338 155.207 48.3338C154.85 48.3338 154.568 48.4131 154.362 48.5717C154.158 48.728 154.017 48.902 153.939 49.0938L152.941 48.8665C153.06 48.535 153.233 48.2675 153.46 48.0639C153.69 47.858 153.953 47.7088 154.252 47.6165C154.55 47.5218 154.864 47.4744 155.193 47.4744C155.411 47.4744 155.641 47.5005 155.885 47.5526C156.132 47.6023 156.361 47.6946 156.574 47.8295C156.79 47.9645 156.966 48.1574 157.103 48.4084C157.241 48.657 157.309 48.9801 157.309 49.3778V53H156.272V52.2543H156.23C156.161 52.3916 156.058 52.5265 155.921 52.6591C155.783 52.7917 155.607 52.9018 155.392 52.9893C155.176 53.0769 154.918 53.1207 154.618 53.1207ZM154.848 52.2685C155.142 52.2685 155.393 52.2105 155.601 52.0945C155.812 51.9785 155.972 51.8269 156.081 51.6399C156.192 51.4505 156.248 51.2481 156.248 51.0327V50.3295C156.21 50.3674 156.136 50.4029 156.027 50.4361C155.921 50.4669 155.799 50.4941 155.662 50.5178C155.524 50.5391 155.391 50.5592 155.26 50.5781C155.13 50.5947 155.021 50.6089 154.934 50.6207C154.728 50.6468 154.539 50.6906 154.369 50.7521C154.201 50.8137 154.066 50.9025 153.964 51.0185C153.865 51.1321 153.815 51.2836 153.815 51.473C153.815 51.7358 153.912 51.9347 154.106 52.0696C154.3 52.2022 154.548 52.2685 154.848 52.2685ZM159.535 45.7273V53H158.474V45.7273H159.535ZM168.117 48.0249C168.049 47.8094 167.956 47.6165 167.84 47.446C167.727 47.2732 167.591 47.1264 167.432 47.0057C167.273 46.8826 167.092 46.7891 166.889 46.7251C166.687 46.6612 166.466 46.6293 166.225 46.6293C165.815 46.6293 165.446 46.7346 165.117 46.9453C164.788 47.156 164.527 47.465 164.335 47.8722C164.146 48.277 164.051 48.773 164.051 49.3601C164.051 49.9496 164.147 50.4479 164.339 50.8551C164.531 51.2623 164.794 51.5713 165.127 51.782C165.461 51.9927 165.841 52.098 166.267 52.098C166.663 52.098 167.007 52.0175 167.301 51.8565C167.597 51.6955 167.825 51.4683 167.986 51.1747C168.149 50.8788 168.231 50.5308 168.231 50.1307L168.515 50.1839H166.434V49.2784H169.293V50.1058C169.293 50.7166 169.163 51.2469 168.902 51.6967C168.644 52.1442 168.287 52.4898 167.83 52.7337C167.375 52.9775 166.854 53.0994 166.267 53.0994C165.609 53.0994 165.031 52.9479 164.534 52.6449C164.039 52.3419 163.654 51.9122 163.377 51.3558C163.1 50.7971 162.961 50.1342 162.961 49.3672C162.961 48.7872 163.042 48.2663 163.203 47.8047C163.364 47.343 163.59 46.9512 163.881 46.6293C164.174 46.3049 164.519 46.0575 164.914 45.8871C165.312 45.7143 165.746 45.6278 166.218 45.6278C166.61 45.6278 166.976 45.6858 167.315 45.8018C167.656 45.9179 167.959 46.0824 168.224 46.2955C168.491 46.5085 168.713 46.7618 168.888 47.0554C169.063 47.3466 169.182 47.6697 169.243 48.0249H168.117ZM170.35 53V47.5455H171.377V48.4119H171.434C171.533 48.1184 171.708 47.8875 171.959 47.7195C172.212 47.549 172.499 47.4638 172.819 47.4638C172.885 47.4638 172.963 47.4661 173.053 47.4709C173.145 47.4756 173.217 47.4815 173.27 47.4886V48.5043C173.227 48.4924 173.151 48.4794 173.042 48.4652C172.933 48.4486 172.824 48.4403 172.716 48.4403C172.465 48.4403 172.241 48.4936 172.044 48.6001C171.85 48.7043 171.696 48.8499 171.583 49.0369C171.469 49.2216 171.412 49.4323 171.412 49.669V53H170.35ZM176.041 53.1101C175.529 53.1101 175.083 52.9929 174.702 52.7585C174.321 52.5241 174.025 52.1963 173.814 51.7749C173.603 51.3535 173.498 50.861 173.498 50.2976C173.498 49.7318 173.603 49.237 173.814 48.8132C174.025 48.3894 174.321 48.0604 174.702 47.826C175.083 47.5916 175.529 47.4744 176.041 47.4744C176.552 47.4744 176.998 47.5916 177.379 47.826C177.761 48.0604 178.057 48.3894 178.267 48.8132C178.478 49.237 178.583 49.7318 178.583 50.2976C178.583 50.861 178.478 51.3535 178.267 51.7749C178.057 52.1963 177.761 52.5241 177.379 52.7585C176.998 52.9929 176.552 53.1101 176.041 53.1101ZM176.044 52.2188C176.376 52.2188 176.65 52.1312 176.868 51.956C177.086 51.7808 177.247 51.5476 177.351 51.2564C177.458 50.9652 177.511 50.6444 177.511 50.294C177.511 49.946 177.458 49.6264 177.351 49.3352C177.247 49.0417 177.086 48.8061 176.868 48.6286C176.65 48.451 176.376 48.3622 176.044 48.3622C175.71 48.3622 175.433 48.451 175.213 48.6286C174.995 48.8061 174.833 49.0417 174.727 49.3352C174.623 49.6264 174.57 49.946 174.57 50.294C174.57 50.6444 174.623 50.9652 174.727 51.2564C174.833 51.5476 174.995 51.7808 175.213 51.956C175.433 52.1312 175.71 52.2188 176.044 52.2188ZM180.535 53L178.93 47.5455H180.027L181.096 51.5511H181.149L182.222 47.5455H183.319L184.384 51.5334H184.438L185.499 47.5455H186.597L184.995 53H183.912L182.804 49.0618H182.722L181.615 53H180.535ZM189.901 47.5455V48.3977H186.921V47.5455H189.901ZM187.72 46.2386H188.782V51.3984C188.782 51.6044 188.813 51.7595 188.874 51.8636C188.936 51.9654 189.015 52.0353 189.112 52.0732C189.212 52.1087 189.319 52.1264 189.435 52.1264C189.521 52.1264 189.595 52.1205 189.659 52.1087C189.723 52.0968 189.773 52.0874 189.808 52.0803L190 52.9574C189.938 52.9811 189.851 53.0047 189.737 53.0284C189.624 53.0545 189.482 53.0687 189.311 53.071C189.032 53.0758 188.771 53.026 188.53 52.9219C188.288 52.8177 188.093 52.6567 187.944 52.4389C187.795 52.2211 187.72 51.9477 187.72 51.6186V46.2386ZM192.004 49.7614V53H190.942V45.7273H191.99V48.4332H192.057C192.185 48.1397 192.381 47.9065 192.643 47.7337C192.906 47.5608 193.249 47.4744 193.673 47.4744C194.047 47.4744 194.374 47.5514 194.653 47.7053C194.935 47.8591 195.153 48.0888 195.307 48.3942C195.463 48.6972 195.541 49.076 195.541 49.5305V53H194.479V49.6584C194.479 49.2583 194.376 48.9482 194.17 48.728C193.964 48.5054 193.678 48.3942 193.311 48.3942C193.06 48.3942 192.835 48.4474 192.636 48.554C192.44 48.6605 192.285 48.8168 192.171 49.0227C192.06 49.2263 192.004 49.4725 192.004 49.7614Z" fill="#A7B0C0"/>
</svg>
